{"title":"Rama Madhav 2014 Marathi 1080p Untouched WebHD x264 AAC [TMB]","uid":15505220,"size":4526176124,"categoryP":"video","categoryS":"movies","magnet":"?xt=urn:btih:31d33d84b27ed24f72a923784f245a8b48a72ce7&amp;dn=Rama+Madhav+2014+Marathi+1080p+Untouched+WebHD+x264+AAC+%5BTMB%5D&amp;tr=udp%3A%2F%2Ftracker.leechers-paradise.org%3A6969&amp;tr=udp%3A%2F%2Fzer0day.ch%3A1337&amp;tr=udp%3A%2F%2Fopen.demonii.com%3A1337&amp;tr=udp%3A%2F%2Ftracker.coppersurfer.tk%3A6969&amp;tr=udp%3A%2F%2Fexodus.desync.com%3A6969","seeders":1,"leechers":2,"uploader":"Manoj_vb","files":1,"time":1470569237,"description":"[CENTER][IMG]http://i1306.photobucket.com/albums/s570/zyx55e/44_zpsc46e809d.gif[/IMG]\r\n\r\n[IMG]https://s25.postimg.org/p3w6g6rr3/Rama_Madhav_Marathi_Movie1.jpg[/IMG]\r\n\r\n[url=https://postimg.org/image/l2gxg0v7f/][img]https://s25.postimg.org/l2gxg0v7f/vlcsnap_0171_03_11_12h29m37s526.png[/img][/url]\r\n\r\n[url=https://postimg.org/image/dnrlnn9bv/][img]https://s25.postimg.org/dnrlnn9bv/vlcsnap_2683_02_03_05h37m32s711.png[/img][/url]\r\n\r\n[url=https://postimg.org/image/5jjhiwmwr/][img]https://s25.postimg.org/5jjhiwmwr/vlcsnap_2684_04_04_06h37m50s825.png[/img][/url]\r\n\r\n[url=https://postimg.org/image/45runlnnf/][img]https://s25.postimg.org/45runlnnf/vlcsnap_2809_12_03_18h40m39s618.png[/img][/url]\r\n\r\n[url=https://postimg.org/image/glokhcgzf/][img]https://s25.postimg.org/glokhcgzf/vlcsnap_3287_10_01_15h01m10s959.png[/img][/url]\r\n\r\n[url=https://postimg.org/image/wxym72vaz/][img]https://s25.postimg.org/wxym72vaz/vlcsnap_3324_05_01_13h56m41s382.png[/img][/url]\r\n\r\n[url=https://postimg.org/image/4z91tyj23/][img]https://s25.postimg.org/4z91tyj23/vlcsnap_3546_02_18_20h41m23s627.png[/img][/url]\r\n\r\n[url=https://postimg.org/image/yfonwdpff/][img]https://s25.postimg.org/yfonwdpff/vlcsnap_5154_09_18_02h12m17s752.png[/img][/url]\r\n\r\n[url=https://postimg.org/image/ivha5ufaz/][img]https://s25.postimg.org/ivha5ufaz/vlcsnap_6072_07_30_18h26m13s418.png[/img][/url]\r\n\r\n[url=https://postimg.org/image/xspr6usjf/][img]https://s25.postimg.org/xspr6usjf/vlcsnap_6292_03_14_08h06m29s021.png[/img][/url]\r\n\r\n[url=https://postimg.org/image/o9g2de517/][img]https://s25.postimg.org/o9g2de517/vlcsnap_7856_11_28_19h37m09s893.png[/img][/url]\r\n\r\n[url=https://postimg.org/image/c8umcnxmj/][img]https://s25.postimg.org/c8umcnxmj/vlcsnap_8403_01_27_15h37m19s721.png[/img][/url]\r\n\r\n[url=https://postimg.org/image/bklrtpywr/][img]https://s25.postimg.org/bklrtpywr/vlcsnap_9283_04_10_17h04m17s302.png[/img][/url]\r\n\r\n\r\n[IMG]http://i1306.photobucket.com/albums/s570/zyx55e/oie_11162011MOJeDGQI_zpsc25b2b81.gif[/IMG]\r\n\r\nGeneral\r\nComplete name               : Rama Madhav 2014 1080p Untouched WebHD x264 AAC [TMB].mp4\r\nFormat                      : MPEG-4\r\nFormat profile              : Base Media\r\nCodec ID                    : isom (isom/iso2/avc1/mp41)\r\nFile size                   : 4.22 GiB\r\nDuration                    : 2h 22mn\r\nOverall bit rate mode       : Variable\r\nOverall bit rate            : 4 247 Kbps\r\nWriting application         : Lavf56.40.101\r\n\r\nVideo\r\nFormat                      : AVC\r\nFormat/Info                 : Advanced Video Codec\r\nFormat profile              :   \r\nFormat settings, CABAC      : Yes\r\nFormat settings, ReFrames   : 1 frame\r\nFormat settings, GOP        : M=1, N=25\r\nCodec ID                    : avc1\r\nCodec ID/Info               : Advanced Video Coding\r\nDuration                    : 2h 22mn\r\nBit rate mode               : Constant\r\nBit rate                    : 4 184 Kbps\r\nNominal bit rate            : 4 500 Kbps\r\nWidth                       : 1 920 pixels\r\nHeight                      : 1 080 pixels\r\nDisplay aspect ratio        : 16:9\r\nFrame rate mode             : Variable\r\nFrame rate                  : 23.241 fps\r\nMinimum frame rate          : 0.002 fps\r\nMaximum frame rate          : 25.000 fps\r\nOriginal frame rate         : 25.000 fps\r\nColor space                 : YUV\r\nChroma subsampling          : 4:2:0\r\nBit depth                   : 8 bits\r\nScan type                   : Progressive\r\nBits/(Pixel*Frame)          : 0.087\r\nStream size                 : 4.15 GiB (99%)\r\n\r\nAudio\r\nFormat                      : AAC\r\nFormat/Info                 : Advanced Audio Codec\r\nFormat profile              : LC\r\nCodec ID                    : 40\r\nDuration                    : 2h 22mn\r\nBit rate mode               : Variable\r\nBit rate                    : 57.1 Kbps\r\nMaximum bit rate            : 63.8 Kbps\r\nChannel(s)                  : 2 channels\r\nChannel positions           : Front: L R\r\nSampling rate               : 48.0 KHz\r\nFrame rate                  : 46.875 fps (1024 spf)\r\nCompression mode            : Lossy\r\nStream size                 : 58.0 MiB (1%)\r\n\r\nUploaded &amp; Shared by [B]Manojvb[/B]\r\n\r\nSeeding 24x7... Extreme Seeding...\r\n\r\n\r\n[IMG]http://i1306.photobucket.com/albums/s570/zyx55e/oie_1117625zVIGKvnK_zpsc8b6e055.gif[/IMG]\r\n[/CENTER]","torrent":{"xt":"urn:btih:31d33d84b27ed24f72a923784f245a8b48a72ce7","amp;dn":"Rama+Madhav+2014+Marathi+1080p+Untouched+WebHD+x264+AAC+%5BTMB%5D","amp;tr":["udp%3A%2F%2Ftracker.leechers-paradise.org%3A6969","udp%3A%2F%2Fzer0day.ch%3A1337","udp%3A%2F%2Fopen.demonii.com%3A1337","udp%3A%2F%2Ftracker.coppersurfer.tk%3A6969","udp%3A%2F%2Fexodus.desync.com%3A6969"],"infoHash":"31d33d84b27ed24f72a923784f245a8b48a72ce7","infoHashBuffer":{"type":"Buffer","data":[49,211,61,132,178,126,210,79,114,169,35,120,79,36,90,139,72,167,44,231]},"announce":[],"urlList":[]}}